HIERARCHY
ROOT ui
{
	 OFFSET 0 0 0
	 CHANNELS 3 XPosition YPosition Z Position
	 EndSite
	 {
	 OFFSET 0 -1 0
	 }
}
ROOT li
{
	 OFFSET 0 0 0
	 CHANNELS 3 XPosition YPosition Z Position
	 EndSite
	 {
	 OFFSET 0 -1 0
	 }
}
ROOT ul
{
	 OFFSET 0 0 0
	 CHANNELS 3 XPosition YPosition Z Position
	 EndSite
	 {
	 OFFSET 0 -1 0
	 }
}
ROOT ll
{
	 OFFSET 0 0 0
	 CHANNELS 3 XPosition YPosition Z Position
	 EndSite
	 {
	 OFFSET 0 -1 0
	 }
}
ROOT tt
{
	 OFFSET 0 0 0
	 CHANNELS 3 XPosition YPosition Z Position
	 EndSite
	 {
	 OFFSET 0 -1 0
	 }
}
ROOT tb
{
	 OFFSET 0 0 0
	 CHANNELS 3 XPosition YPosition Z Position
	 EndSite
	 {
	 OFFSET 0 -1 0
	 }
}
ROOT td
{
	 OFFSET 0 0 0
	 CHANNELS 3 XPosition YPosition Z Position
	 EndSite
	 {
	 OFFSET 0 -1 0
	 }
}
ROOT v
{
	 OFFSET 0 0 0
	 CHANNELS 3 XPosition YPosition Z Position
	 EndSite
	 {
	 OFFSET 0 -1 0
	 }
}
ROOT bn
{
	 OFFSET 0 0 0
	 CHANNELS 3 XPosition YPosition Z Position
	 EndSite
	 {
	 OFFSET 0 -1 0
	 }
}
MOTION
Frames: 13
Frame Time: 0.002
-0.003346873998641968	9.225209951400757E-4	0		0.462488037109375	-2.30052880859375	0		-1.1442518310546874	-0.07209635925292969	0		-0.7978645629882812	-2.4121904296875	0		1.5144666748046876	-0.4633833923339844	0		3.174723876953125	0.1647601318359375	0		4.724556640625	0.22912400817871093	0		5.5938759765625	0.21509330749511718	0		-0.4587621459960938	5.8534853515625	0		
0.006885622024536133	0.00216963791847229	0		0.4963417053222656	-2.310830810546875	0		-1.1420462646484375	-0.06913631439208984	0		-0.7649876098632813	-2.414798828125	0		1.51851953125	-0.45688671875	0		3.17522412109375	0.179405029296875	0		4.72306787109375	0.2409539337158203	0		5.60258642578125	0.220693603515625	0		-0.30902532958984374	5.8823544921875	0		
0.0032107620239257813	0.009592745780944824	0		0.48750006103515625	-2.298617919921875	0		-1.143858642578125	-0.06912686157226562	0		-0.7680466918945312	-2.414989501953125	0		1.513451171875	-0.4622535705566406	0		3.16446923828125	0.17123251342773438	0		4.7163330078125	0.2309090118408203	0		5.58702783203125	0.22020091247558593	0		-0.32279818725585935	5.87210791015625	0		
-0.0015645819902420045	0.006052733898162842	0		0.5054425659179688	-2.309718017578125	0		-1.0756934814453125	-0.07402257537841797	0		-0.7381001586914062	-2.4205986328125	0		1.5014979248046876	-0.46148126220703123	0		3.1917998046875	0.16764846801757813	0		4.72063134765625	0.22182412719726563	0		5.5992744140625	0.2121407470703125	0		-0.3215142517089844	5.87169580078125	0		
0.0016815689802169799	4.337019920349121E-4	0		0.47665557861328123	-2.30717041015625	0		-1.1513988037109375	-0.07204805755615235	0		-0.7460783081054687	-2.42771875	0		1.493675537109375	-0.45569549560546874	0		3.153237060546875	0.16901716613769532	0		4.71822607421875	0.2319522247314453	0		5.58447705078125	0.20864073181152343	0		-0.32030361938476565	5.87130078125	0		
-0.0048663849830627446	0.004976968765258789	0		0.49991217041015623	-2.311280517578125	0		-1.0790718994140625	-0.07406471252441406	0		-0.7468060302734375	-2.425922119140625	0		1.5046612548828124	-0.47010009765625	0		3.156599609375	0.1599459991455078	0		4.7224228515625	0.2081354064941406	0		5.59458349609375	0.1855919647216797	0		-0.3181856689453125	5.86991162109375	0		
0.004634199142456055	0.006325736999511718	0		0.4604272155761719	-2.3074638671875	0		-1.140584228515625	-0.07022294616699219	0		-0.7704148559570313	-2.426786376953125	0		1.5090394287109374	-0.4633442687988281	0		3.185252197265625	0.16562994384765625	0		4.71815771484375	0.21760421752929687	0		5.589234375	0.19279644775390625	0		-0.302004150390625	5.87833935546875	0		
0.0751321258544922	-2.036910057067871E-4	0		0.5000989074707032	-2.3057373046875	0		-1.0780428466796874	-0.07116558837890626	0		-0.7518191528320313	-2.4262451171875	0		1.4984571533203126	-0.46229330444335937	0		3.15195947265625	0.16833407592773436	0		4.71395654296875	0.22425125122070313	0		5.588205078125	0.19328216552734376	0		-0.30297476196289064	5.88102783203125	0		
-0.006071909904479981	0.00654768705368042	0		0.4409145812988281	-2.306494384765625	0		-1.15335009765625	-0.06906868743896484	0		-0.7581005249023437	-2.430331787109375	0		1.4998262939453124	-0.4733363342285156	0		3.155612060546875	0.15963531494140626	0		4.70763134765625	0.2151136474609375	0		5.5801005859375	0.18919699096679687	0		-0.316220947265625	5.86992333984375	0		
0.019623004913330078	-0.0022693281173706056	0		0.4908370666503906	-2.313853759765625	0		-1.0886859130859374	-0.0780934066772461	0		-0.7662138671875	-2.436376953125	0		1.4885145263671875	-0.47210189819335935	0		3.151409912109375	0.1531890106201172	0		4.707541015625	0.21406752014160157	0		5.57921923828125	0.18521408081054688	0		-0.31536972045898437	5.869630859375	0		
-0.0064306859970092774	-0.0022516720294952393	0		0.4460115356445313	-2.316698974609375	0		-1.1556317138671874	-0.06907975006103516	0		-0.7463074951171875	-2.453853759765625	0		1.4932142333984375	-0.4790356140136719	0		3.153480712890625	0.15677864074707032	0		4.69553759765625	0.21139022827148438	0		5.58552685546875	0.17612159729003907	0		-0.31458074951171877	5.86935791015625	0		
0.06573641967773437	0.003230565071105957	0		0.464593994140625	-2.306491943359375	0		-1.1506680908203124	-0.07419134521484375	0		-0.7927070922851562	-2.439262451171875	0		1.474209716796875	-0.4755125732421875	0		3.147702880859375	0.16262139892578126	0		4.70466064453125	0.20955532836914062	0		5.58482568359375	0.1728311309814453	0		-0.2996775512695313	5.879876953125	0		
-0.010059142112731933	0.005124695777893066	0		0.46318609619140627	-2.306925537109375	0		-1.157427001953125	-0.06911780548095703	0		-0.7602349243164063	-2.4449326171875	0		1.4824776611328125	-0.463351318359375	0		3.151805908203125	0.15442622375488282	0		4.69902197265625	0.21612673950195313	0		5.58717724609375	0.18705563354492188	0		-0.313186767578125	5.8688671875	0		
